HIERARCHY
ROOT Root
{
	OFFSET 0.00000 0.00000 0.00000
	CHANNELS 6 Xposition Yposition Zposition Zrotation Xrotation Yrotation
	JOINT Hip
	{
		OFFSET 0 0 0	
		CHANNELS 3 Zrotation Xrotation Yrotation
		JOINT Tummy
		{
			OFFSET 0 0.04 0	
			CHANNELS 3 Zrotation Xrotation Yrotation
			JOINT ChestBottom
			{
				OFFSET 0 0.194 0	
				CHANNELS 3 Zrotation Xrotation Yrotation
				JOINT ChestTop
				{
					OFFSET 0 0.166 0	
					CHANNELS 3 Zrotation Xrotation Yrotation
					JOINT LeftCollar
					{
						OFFSET 0 0.1 0	
						CHANNELS 3 Zrotation Xrotation Yrotation
						JOINT LeftUpperArm
						{
							OFFSET 0.156 -0.02 0.03	
							CHANNELS 3 Zrotation Xrotation Yrotation
							JOINT LeftForeArm
							{
								OFFSET 0.035 -0.27 -0.01	
								CHANNELS 3 Zrotation Xrotation Yrotation
								JOINT LeftHand
								{
									OFFSET 0.01 -0.27 0.01	
									CHANNELS 3 Zrotation Xrotation Yrotation
									End Site
									{
										OFFSET 0 -0.15 0
									}
								}
							}
						}
					}
					JOINT RightCollar
					{
						OFFSET 0 0.1 0	
						CHANNELS 3 Zrotation Xrotation Yrotation
						JOINT RightUpperArm
						{
							OFFSET -0.156 -0.02 0.03	
							CHANNELS 3 Zrotation Xrotation Yrotation
							JOINT RightForeArm
							{
								OFFSET -0.035 -0.27 -0.01	
								CHANNELS 3 Zrotation Xrotation Yrotation
								JOINT RightHand
								{
									OFFSET -0.01 -0.27 0.01	
									CHANNELS 3 Zrotation Xrotation Yrotation
									End Site
									{
										OFFSET 0 -0.15 0
									}
								}
							}
						}
					}
					JOINT Neck
					{
						OFFSET 0 0.1 0	
						CHANNELS 3 Zrotation Xrotation Yrotation
						JOINT Head
						{
							OFFSET 0 0.127 0.03	
							CHANNELS 3 Zrotation Xrotation Yrotation
							End Site
							{
								OFFSET 0 0.127 0.03
							}
						}
					}
				}
			}
		}
	}
	JOINT LeftHip
	{
		OFFSET 0 0 0	
		CHANNELS 3 Zrotation Xrotation Yrotation
		JOINT LeftThigh
		{
			OFFSET 0.088 -0.06 0	
			CHANNELS 3 Zrotation Xrotation Yrotation
			JOINT LeftLowerLeg
			{
				OFFSET 0 -0.39 0.02	
				CHANNELS 3 Zrotation Xrotation Yrotation
				JOINT LeftFootTop
				{
					OFFSET 0 -0.43 -0.02	
					CHANNELS 3 Zrotation Xrotation Yrotation
					JOINT LeftFootFront
					{
						OFFSET 0 -0.07 0.085	
						CHANNELS 3 Zrotation Xrotation Yrotation
						End Site
						{
							OFFSET 0 -0.005 0.09
						}
					}
				}
				JOINT LeftHeel
				{
					OFFSET 0 -0.43 -0.02	
					CHANNELS 3 Zrotation Xrotation Yrotation
					End Site
					{
						OFFSET 0 -0.075 -0.05
					}
				}
			}
		}
	}
	JOINT RightHip
	{
		OFFSET 0 0 0	
		CHANNELS 3 Zrotation Xrotation Yrotation
		JOINT RightThigh
		{
			OFFSET -0.088 -0.06 0	
			CHANNELS 3 Zrotation Xrotation Yrotation
			JOINT RightLowerLeg
			{
				OFFSET 0 -0.39 0.02	
				CHANNELS 3 Zrotation Xrotation Yrotation
				JOINT RightFootTop
				{
					OFFSET 0 -0.43 -0.02	
					CHANNELS 3 Zrotation Xrotation Yrotation
					JOINT RightFootFront
					{
						OFFSET 0 -0.07 0.085	
						CHANNELS 3 Zrotation Xrotation Yrotation
						End Site
						{
							OFFSET 0 -0.005 0.09
						}
					}
				}
				JOINT RightHeel
				{
					OFFSET 0 -0.43 -0.02	
					CHANNELS 3 Zrotation Xrotation Yrotation
					End Site
					{
						OFFSET 0 -0.075 -0.05
					}
				}
			}
		}
	}
}
MOTION
Frames: 11
Frame Time: 0.05
0 0.95876 0 -0 0 -0 -4.5838 1.4862 32.432 -1.6463 -7.7569 1.0749 -1.6463 -7.7569 1.0749 -1.3912 -6.5138 0.91699 -0 0 -0 2.0155 10.146 11.696 7.3903 6.2704 3.0927 2.2084 11.624 -41.326 -0 0 -0 17.353 9.7789 5.8302 -12.191 8.368 5.6089 13.649 -4.8229 5.1429 4.7551 10.162 4.6747 3.1359 3.7436 6.1246 -4.5838 1.4862 32.432 -2.8465 4.7138 32.518 -0.15962 -11.984 -21.263 -0 0 -0 5.3361e-08 5.3656e-16 1.1523e-06 -0 0 -0 -4.5838 1.4862 32.432 9.1966 10.664 37.749 -11.378 -4.3261 23.334 -0 0 -0 0 0 -9.9385e-07 -0 0 -0 
0 0.9588 0 -0 0 -0 -4.5581 1.4606 32.463 -1.6657 -7.7424 1.0596 -1.6657 -7.7424 1.0596 -1.4074 -6.5017 0.90439 -0 0 -0 2.0345 10.135 11.686 7.4181 6.2807 3.0991 2.197 11.618 -41.316 -0 0 -0 17.357 9.741 5.8251 -12.192 8.3886 5.6316 13.685 -4.8197 5.1478 4.7675 10.186 4.6733 3.1336 3.7788 6.1112 -4.5581 1.4606 32.463 -2.8204 4.6959 32.499 -0.1501 -11.927 -21.263 -0 0 -0 0 0 -2.9182e-07 -0 0 -0 -4.5581 1.4606 32.463 9.2081 10.668 37.709 -11.399 -4.305 23.331 -0 0 -0 -1.0672e-07 -4.0844e-16 4.3856e-07 -0 0 -0 
0 0.95885 0 -0 0 -0 -4.5493 1.4136 32.477 -1.674 -7.7399 1.0551 -1.674 -7.7399 1.0551 -1.4143 -6.4995 0.90065 -0 0 -0 2.0573 10.158 11.676 7.4452 6.2968 3.0976 2.2033 11.605 -41.331 -0 0 -0 17.362 9.7389 5.7936 -12.212 8.3695 5.6349 13.737 -4.8151 5.1733 4.7724 10.232 4.6552 3.1311 3.8267 6.0899 -4.5493 1.4136 32.477 -2.7657 4.6817 32.487 -0.13594 -11.872 -21.254 -0 0 -0 -5.3361e-08 7.9359e-16 -1.7042e-06 -0 0 -0 -4.5493 1.4136 32.477 9.248 10.683 37.683 -11.417 -4.315 23.325 -0 0 -0 -1.0672e-07 -7.9514e-16 8.5377e-07 -0 0 -0 
0 0.95892 0 -0 0 -0 -4.5211 1.3651 32.506 -1.6916 -7.7196 1.0412 -1.6916 -7.7196 1.0412 -1.4289 -6.4824 0.88908 -0 0 -0 2.0906 10.139 11.696 7.4655 6.3117 3.1016 2.2204 11.594 -41.371 -0 0 -0 17.358 9.716 5.808 -12.207 8.3598 5.6341 13.773 -4.8327 5.1849 4.7776 10.242 4.6443 3.1235 3.853 6.0667 -4.5211 1.3651 32.506 -2.7276 4.6788 32.47 -0.097455 -11.845 -21.233 -0 0 -0 -0 0 1.0397e-06 -0 0 -0 -4.5211 1.3651 32.506 9.2729 10.709 37.64 -11.419 -4.3091 23.326 -0 0 -0 -1.0672e-07 3.7117e-16 -3.9854e-07 -0 0 -0 
0 0.959 0 -0 0 -0 -4.4956 1.3076 32.54 -1.6991 -7.7062 1.0315 -1.6991 -7.7062 1.0315 -1.4352 -6.4712 0.88103 -0 0 -0 2.1168 10.141 11.725 7.4621 6.314 3.078 2.2521 11.611 -41.409 -0 0 -0 17.331 9.7326 5.8211 -12.207 8.3497 5.6271 13.791 -4.8706 5.244 4.7651 10.269 4.6253 3.1058 3.8903 6.0375 -4.4956 1.3076 32.54 -2.659 4.6658 32.435 -0.086391 -11.776 -21.213 -0 0 -0 -5.3361e-08 -4.9657e-16 1.0664e-06 -0 0 -0 -4.4956 1.3076 32.54 9.3049 10.74 37.594 -11.414 -4.3119 23.334 -0 0 -0 1.0672e-07 5.2492e-16 5.6362e-07 -0 0 -0 
0 0.95907 0 -0 0 -0 -4.4703 1.2611 32.561 -1.7073 -7.6859 1.0339 -1.7073 -7.6859 1.0339 -1.442 -6.4542 0.88303 -0 0 -0 2.1045 10.116 11.722 7.4593 6.3069 3.0755 2.2945 11.649 -41.415 -0 0 -0 17.304 9.7251 5.8436 -12.209 8.3486 5.5987 13.806 -4.8572 5.2901 4.7471 10.299 4.5808 3.0802 3.9366 5.9917 -4.4703 1.2611 32.561 -2.5998 4.6722 32.421 -0.08518 -11.737 -21.189 -0 0 -0 0 0 -1.3182e-06 -0 0 -0 -4.4703 1.2611 32.561 9.3419 10.758 37.572 -11.417 -4.3143 23.352 -0 0 -0 1.0672e-07 8.4639e-16 9.088e-07 -0 0 -0 
0 0.95915 0 -0 0 -0 -4.4629 1.2165 32.596 -1.715 -7.6728 1.0568 -1.715 -7.6728 1.0568 -1.4487 -6.4431 0.90229 -0 0 -0 2.1174 10.103 11.683 7.4542 6.3028 3.024 2.3096 11.664 -41.433 -0 0 -0 17.29 9.6967 5.7725 -12.209 8.3588 5.601 13.818 -4.8768 5.296 4.726 10.364 4.4693 3.0477 4.0137 5.8962 -4.4629 1.2165 32.596 -2.5556 4.7165 32.359 -0.071699 -11.769 -21.123 -0 0 -0 -0 0 4.1688e-08 -0 0 -0 -4.4629 1.2165 32.596 9.3894 10.765 37.545 -11.41 -4.3078 23.356 -0 0 -0 -5.3361e-08 1.7083e-17 -3.6686e-08 -0 0 -0 
0 0.95921 0 -0 0 -0 -4.4558 1.1939 32.624 -1.7362 -7.6723 1.0765 -1.7362 -7.6723 1.0765 -1.4667 -6.4426 0.91906 -0 0 -0 2.166 10.116 11.618 7.457 6.3068 3.0172 2.2639 11.648 -41.419 -0 0 -0 17.307 9.7023 5.7254 -12.192 8.354 5.5909 13.8 -4.8519 5.325 4.7233 10.441 4.3881 3.022 4.0923 5.8314 -4.4558 1.1939 32.624 -2.5208 4.715 32.343 -0.055847 -11.78 -21.102 -0 0 -0 5.3361e-08 1.6695e-16 3.5852e-07 -0 0 -0 -4.4558 1.1939 32.624 9.4169 10.755 37.536 -11.397 -4.3084 23.362 -0 0 -0 1.0672e-07 -4.5969e-16 -4.9359e-07 -0 0 -0 
0 0.95926 0 -0 0 -0 -4.4546 1.1574 32.679 -1.7526 -7.6615 1.0808 -1.7526 -7.6615 1.0808 -1.4804 -6.4335 0.92277 -0 0 -0 2.1947 10.112 11.547 7.45 6.3149 3.04 2.2662 11.63 -41.451 -0 0 -0 17.329 9.7213 5.701 -12.185 8.3207 5.58 13.76 -4.8543 5.4074 4.7227 10.498 4.3769 3.0057 4.1587 5.8233 -4.4546 1.1574 32.679 -2.4569 4.685 32.292 -0.015128 -11.731 -21.099 -0 0 -0 -0 0 1.1556e-06 -0 0 -0 -4.4546 1.1574 32.679 9.4557 10.761 37.504 -11.392 -4.3295 23.359 -0 0 -0 -5.3361e-08 6.7556e-16 -1.4507e-06 -0 0 -0 
0 0.9593 0 -0 0 -0 -4.4342 1.1382 32.72 -1.7665 -7.6607 1.0908 -1.7665 -7.6607 1.0908 -1.4922 -6.4328 0.93127 -0 0 -0 2.1638 10.128 11.509 7.465 6.3241 3.0337 2.3067 11.6 -41.447 -0 0 -0 17.338 9.7581 5.673 -12.189 8.2965 5.5732 13.756 -4.8703 5.447 4.7019 10.582 4.3828 2.9696 4.2439 5.8354 -4.4342 1.1382 32.72 -2.4377 4.6755 32.257 0.033786 -11.704 -21.105 -0 0 -0 -0 0 1.274e-06 -0 0 -0 -4.4342 1.1382 32.72 9.4618 10.773 37.468 -11.388 -4.3579 23.359 -0 0 -0 5.3361e-08 -2.609e-16 -5.6029e-07 -0 0 -0 
0 0.95932 0 -0 0 -0 -4.4032 1.12 32.748 -1.7792 -7.6652 1.1043 -1.7792 -7.6652 1.1043 -1.503 -6.4366 0.94274 -0 0 -0 2.1499 10.166 11.512 7.4683 6.3486 2.9884 2.3159 11.562 -41.448 -0 0 -0 17.343 9.8009 5.6113 -12.199 8.2838 5.5891 13.772 -4.891 5.4092 4.6917 10.666 4.3628 2.9446 4.3242 5.8262 -4.4032 1.12 32.748 -2.4374 4.7129 32.255 0.049064 -11.727 -21.12 -0 0 -0 1.0672e-07 1.0545e-15 1.1323e-06 -0 0 -0 -4.4032 1.12 32.748 9.4569 10.792 37.441 -11.387 -4.3771 23.364 -0 0 -0 -5.3361e-08 -2.4693e-16 5.3027e-07 -0 0 -0 
